<svg id="svg" version="1.1" xmlns="http://www.w3.org/2000/svg" xmlns:xlink="http://www.w3.org/1999/xlink" width="400" height="400" viewBox="0, 0, 400,400"><g id="svgg"><path id="path0" d="M166.406 114.465 C 220.755 114.715,219.384 114.633,232.404 118.386 C 233.790 118.785,234.993 119.043,235.078 118.959 C 235.636 118.401,223.652 115.701,216.696 114.818 C 211.068 114.104,208.220 114.068,164.648 114.153 L 118.555 114.244 166.406 114.465 M251.172 126.721 C 251.172 126.920,255.856 130.078,256.152 130.078 C 256.264 130.078,255.936 129.753,255.424 129.355 C 254.126 128.348,251.172 126.517,251.172 126.721 M210.666 129.911 L 209.570 130.916 210.840 130.033 C 211.538 129.547,212.109 129.095,212.109 129.028 C 212.109 128.720,211.677 128.984,210.666 129.911 M207.571 133.301 C 205.054 135.918,199.391 142.722,199.891 142.529 C 200.099 142.449,201.645 140.713,203.327 138.672 C 205.008 136.631,207.182 134.126,208.158 133.105 C 209.133 132.085,209.844 131.250,209.738 131.250 C 209.631 131.250,208.656 132.173,207.571 133.301 M259.766 133.398 C 260.494 134.150,261.179 134.766,261.286 134.766 C 261.393 134.766,260.885 134.150,260.156 133.398 C 259.427 132.646,258.743 132.031,258.636 132.031 C 258.528 132.031,259.037 132.646,259.766 133.398 M261.719 135.007 C 261.719 135.211,262.729 136.339,263.965 137.513 L 266.211 139.648 264.063 137.314 C 262.881 136.030,261.870 134.902,261.816 134.807 C 261.763 134.713,261.719 134.803,261.719 135.007 M198.218 144.238 L 197.070 145.508 198.340 144.361 C 199.038 143.729,199.609 143.158,199.609 143.091 C 199.609 142.789,199.287 143.055,198.218 144.238 M195.653 146.836 C 195.358 147.244,194.000 148.958,192.635 150.644 L 190.153 153.711 192.699 150.977 C 194.099 149.473,195.534 147.759,195.887 147.168 C 196.618 145.944,196.459 145.719,195.653 146.836 M205.774 149.219 C 205.641 149.756,205.420 150.635,205.284 151.172 C 205.129 151.779,205.270 151.639,205.656 150.801 C 205.998 150.061,206.219 149.182,206.147 148.848 C 206.065 148.468,205.926 148.605,205.774 149.219 M273.505 151.712 C 274.415 153.547,275.222 154.987,275.298 154.911 C 275.499 154.710,272.641 148.865,272.212 148.600 C 272.013 148.477,272.595 149.877,273.505 151.712 M203.531 156.070 C 202.847 158.143,202.356 159.908,202.441 159.993 C 202.525 160.078,203.151 158.447,203.831 156.370 C 204.511 154.293,205.002 152.528,204.921 152.447 C 204.840 152.366,204.215 153.997,203.531 156.070 M173.592 172.787 C 172.540 173.933,170.648 176.086,169.387 177.572 L 167.094 180.273 169.192 178.098 C 171.699 175.497,175.896 170.703,175.667 170.703 C 175.577 170.703,174.643 171.641,173.592 172.787 M280.559 174.609 C 280.559 175.361,280.640 175.669,280.738 175.293 C 280.836 174.917,280.836 174.302,280.738 173.926 C 280.640 173.550,280.559 173.857,280.559 174.609 M197.687 174.466 C 197.667 175.019,197.952 175.374,198.535 175.521 C 199.285 175.710,199.323 175.674,198.794 175.274 C 198.453 175.016,198.071 174.541,197.946 174.219 C 197.786 173.809,197.709 173.883,197.687 174.466 M199.873 175.391 C 199.980 175.498,207.505 175.586,216.594 175.586 C 225.683 175.586,232.919 175.447,232.673 175.278 C 232.196 174.950,199.544 175.061,199.873 175.391 M227.579 183.105 C 227.268 183.696,226.027 185.146,224.821 186.328 L 222.629 188.477 252.037 188.672 C 268.212 188.779,296.255 188.821,314.355 188.765 L 347.266 188.663 347.266 185.933 L 347.266 183.203 287.654 183.203 C 234.825 183.203,228.067 183.136,228.266 182.617 C 228.643 181.635,228.181 181.964,227.579 183.105 M165.039 182.813 C 164.880 183.070,145.504 183.203,108.180 183.203 L 51.563 183.203 51.563 185.938 L 51.563 188.672 105.732 188.672 L 159.902 188.672 159.146 189.551 C 158.731 190.034,159.887 188.867,161.715 186.956 C 164.881 183.648,165.897 182.422,165.472 182.422 C 165.367 182.422,165.172 182.598,165.039 182.813 M156.620 192.480 L 155.273 193.945 156.738 192.599 C 157.544 191.859,158.203 191.200,158.203 191.134 C 158.203 190.836,157.873 191.117,156.620 192.480 M215.829 196.474 C 214.603 197.972,213.690 199.423,213.800 199.697 C 213.951 200.072,214.008 200.060,214.032 199.650 C 214.062 199.110,216.176 196.331,217.850 194.629 C 218.325 194.146,218.567 193.750,218.386 193.750 C 218.205 193.750,217.054 194.976,215.829 196.474 M161.816 197.558 C 166.274 197.621,173.569 197.621,178.027 197.558 C 182.485 197.495,178.838 197.444,169.922 197.444 C 161.006 197.444,157.358 197.495,161.816 197.558 M208.008 205.469 C 207.390 206.113,207.050 206.631,207.251 206.619 C 207.595 206.599,209.609 204.297,209.282 204.297 C 209.199 204.297,208.625 204.824,208.008 205.469 M185.625 207.695 C 185.047 209.579,185.327 209.859,185.938 208.008 C 186.195 207.227,186.330 206.512,186.237 206.419 C 186.144 206.327,185.869 206.901,185.625 207.695 M205.639 208.301 L 204.492 209.570 205.762 208.423 C 206.460 207.792,207.031 207.221,207.031 207.153 C 207.031 206.852,206.709 207.117,205.639 208.301 M182.504 217.078 C 181.845 218.965,181.552 220.175,181.851 219.767 C 182.503 218.882,184.142 214.090,183.883 213.831 C 183.783 213.731,183.162 215.192,182.504 217.078 M274.815 216.777 C 274.487 217.411,273.933 218.090,273.583 218.286 C 273.147 218.530,273.055 218.829,273.290 219.239 C 273.556 219.702,273.876 219.362,274.714 217.731 C 275.308 216.573,275.708 215.625,275.603 215.625 C 275.497 215.625,275.143 216.144,274.815 216.777 M197.065 218.268 C 196.847 218.426,195.183 220.313,193.368 222.461 C 191.553 224.609,189.798 226.598,189.467 226.881 C 188.931 227.340,188.934 227.360,189.490 227.076 C 189.832 226.901,190.887 225.860,191.834 224.762 C 192.780 223.664,194.488 221.686,195.628 220.367 C 197.638 218.043,197.896 217.665,197.065 218.268 M272.415 221.582 C 271.070 223.863,270.982 224.058,271.667 223.242 C 272.461 222.297,273.144 221.094,272.888 221.094 C 272.786 221.094,272.573 221.313,272.415 221.582 M268.359 227.734 C 267.900 228.379,267.613 228.906,267.720 228.906 C 267.828 228.906,268.291 228.379,268.750 227.734 C 269.209 227.090,269.497 226.563,269.389 226.563 C 269.282 226.563,268.818 227.090,268.359 227.734 M265.283 231.586 C 264.157 232.846,262.968 234.296,262.641 234.809 C 262.070 235.706,262.079 235.704,262.881 234.766 C 263.340 234.229,264.277 233.174,264.963 232.422 C 266.885 230.316,267.717 229.297,267.515 229.297 C 267.413 229.297,266.409 230.327,265.283 231.586 M183.748 233.691 C 181.355 236.221,177.238 241.016,177.459 241.016 C 177.567 241.016,179.441 238.994,181.624 236.523 C 185.619 232.001,186.661 230.613,183.748 233.691 M258.920 237.843 C 257.488 239.051,256.384 240.108,256.468 240.191 C 256.552 240.275,257.284 239.748,258.095 239.019 C 258.906 238.290,260.097 237.313,260.741 236.848 C 261.386 236.382,261.825 235.922,261.718 235.824 C 261.611 235.727,260.352 236.635,258.920 237.843 M252.044 243.129 C 248.625 245.450,246.636 247.007,248.887 245.602 C 253.252 242.875,256.250 240.913,256.250 240.781 C 256.250 240.378,255.399 240.853,252.044 243.129 M174.456 241.634 C 174.004 242.811,174.203 243.750,174.902 243.744 C 175.446 243.739,175.475 243.668,175.045 243.395 C 174.687 243.168,174.590 242.708,174.759 242.034 C 175.039 240.919,174.834 240.648,174.456 241.634 M239.509 249.848 C 237.383 250.818,230.546 253.123,227.344 253.949 C 226.377 254.199,225.797 254.479,226.054 254.571 C 227.107 254.949,237.746 251.355,241.406 249.385 C 243.024 248.514,241.748 248.825,239.509 249.848 M223.242 255.078 L 222.461 255.414 223.242 255.414 C 223.672 255.414,224.375 255.263,224.805 255.078 L 225.586 254.742 224.805 254.742 C 224.375 254.742,223.672 254.893,223.242 255.078 M209.659 257.313 C 210.353 257.399,211.583 257.401,212.394 257.316 C 213.204 257.232,212.637 257.161,211.133 257.159 C 209.629 257.158,208.966 257.227,209.659 257.313 M184.277 257.698 C 184.761 257.791,185.552 257.791,186.035 257.698 C 186.519 257.604,186.123 257.528,185.156 257.528 C 184.189 257.528,183.794 257.604,184.277 257.698 M205.371 257.698 C 205.854 257.791,206.646 257.791,207.129 257.698 C 207.612 257.604,207.217 257.528,206.250 257.528 C 205.283 257.528,204.888 257.604,205.371 257.698 M160.717 261.402 C 157.866 265.798,157.735 266.016,157.934 266.016 C 158.248 266.016,163.418 258.210,163.229 258.021 C 163.123 257.914,161.992 259.436,160.717 261.402 M148.190 279.980 C 147.173 281.431,145.786 283.408,145.108 284.375 C 143.565 286.574,142.997 287.693,144.209 286.147 C 145.644 284.316,150.396 277.344,150.209 277.344 C 150.116 277.344,149.207 278.530,148.190 279.980 M141.718 289.355 C 140.521 290.740,137.081 296.257,138.155 295.070 C 139.142 293.978,142.674 288.672,142.414 288.672 C 142.356 288.672,142.043 288.979,141.718 289.355 M135.188 298.828 C 134.284 300.117,133.626 301.172,133.727 301.172 C 133.894 301.172,136.140 298.160,136.860 296.973 C 137.698 295.589,136.624 296.780,135.188 298.828 M120.254 320.363 C 119.470 321.222,118.731 322.309,118.612 322.778 C 118.369 323.735,120.109 321.811,121.284 319.824 C 122.119 318.412,121.961 318.495,120.254 320.363 " stroke="none" fill="#f6e615" fill-rule="evenodd"></path><path id="path1" d="M81.641 162.305 L 81.641 164.453 131.392 164.453 L 181.143 164.453 182.954 162.517 C 183.951 161.452,184.766 160.485,184.766 160.368 C 184.766 160.252,161.563 160.156,133.203 160.156 L 81.641 160.156 81.641 162.305 M202.143 160.645 C 202.046 160.913,201.707 161.880,201.391 162.793 L 200.816 164.453 259.588 164.453 L 318.359 164.453 318.359 162.305 L 318.359 160.156 260.339 160.156 C 214.278 160.156,202.283 160.257,202.143 160.645 " stroke="none" fill="#e3040c" fill-rule="evenodd"></path><path id="path2" d="M81.250 211.525 L 81.250 213.675 132.644 213.576 L 184.038 213.477 184.733 211.426 L 185.427 209.375 133.338 209.375 L 81.250 209.375 81.250 211.525 M202.968 211.566 L 201.054 213.672 259.511 213.672 L 317.969 213.672 317.969 211.523 L 317.969 209.375 261.426 209.417 L 204.883 209.459 202.968 211.566 " stroke="none" fill="#2c2484" fill-rule="evenodd"></path><path id="path3" d="M118.750 137.305 L 118.750 160.156 151.536 160.156 C 183.979 160.156,184.325 160.148,184.570 159.375 C 184.707 158.945,185.050 158.594,185.332 158.594 C 185.891 158.594,188.339 156.040,189.044 154.722 C 189.284 154.273,189.748 153.906,190.076 153.906 C 190.403 153.906,190.587 153.770,190.484 153.603 C 190.381 153.436,191.073 152.365,192.023 151.221 C 192.972 150.078,193.634 148.957,193.494 148.730 C 193.353 148.503,193.410 148.423,193.620 148.553 C 194.255 148.945,200.980 141.366,200.484 140.818 C 200.325 140.643,200.403 140.619,200.657 140.764 C 201.202 141.077,202.421 139.503,202.072 138.938 C 201.940 138.725,202.012 138.662,202.232 138.798 C 202.452 138.934,203.443 138.039,204.434 136.808 C 209.759 130.195,213.586 127.068,212.144 130.507 C 211.928 131.023,211.209 133.247,210.546 135.449 C 209.884 137.651,209.217 139.454,209.065 139.454 C 208.816 139.455,208.709 140.071,208.473 142.871 C 208.432 143.354,208.295 143.750,208.169 143.750 C 208.043 143.750,207.616 144.761,207.222 145.996 C 206.827 147.231,205.656 150.784,204.619 153.891 C 203.583 156.998,202.734 159.679,202.734 159.848 C 202.734 160.018,219.653 160.154,240.332 160.150 C 261.011 160.147,277.739 160.015,277.507 159.857 C 277.274 159.699,276.154 157.505,275.018 154.980 C 273.882 152.456,272.769 150.391,272.544 150.391 C 272.319 150.391,272.245 150.281,272.379 150.147 C 272.734 149.792,271.252 147.007,269.391 144.531 C 268.503 143.350,267.331 141.726,266.787 140.923 C 265.582 139.145,260.607 134.018,258.207 132.080 C 257.243 131.301,256.100 130.345,255.668 129.955 C 255.236 129.564,254.268 128.881,253.516 128.435 C 252.764 127.989,251.500 127.193,250.707 126.666 C 249.913 126.138,249.074 125.825,248.841 125.968 C 248.608 126.112,248.466 126.001,248.525 125.721 C 248.809 124.375,234.787 118.752,226.266 116.795 C 216.319 114.510,214.816 114.453,164.746 114.453 L 118.750 114.453 118.750 137.305 M118.750 173.828 L 118.750 183.203 141.764 183.203 L 164.778 183.203 166.010 181.648 C 166.707 180.768,167.119 179.893,166.959 179.634 C 166.796 179.370,166.844 179.280,167.074 179.422 C 167.292 179.557,167.978 179.098,168.599 178.402 C 171.579 175.059,172.265 174.143,172.050 173.795 C 171.922 173.588,171.991 173.466,172.204 173.525 C 172.690 173.660,177.027 169.212,177.976 167.605 C 178.365 166.946,178.802 166.406,178.946 166.406 C 179.089 166.406,179.495 165.967,179.847 165.430 L 180.487 164.453 149.618 164.453 L 118.750 164.453 118.750 173.828 M200.755 165.500 C 200.536 166.076,200.320 166.911,200.276 167.355 C 200.232 167.800,200.068 168.260,199.912 168.376 C 199.757 168.493,199.564 168.933,199.484 169.353 C 199.404 169.773,199.136 170.612,198.888 171.217 C 198.640 171.822,198.438 172.579,198.438 172.900 C 198.438 173.221,198.264 173.376,198.052 173.245 C 197.807 173.094,197.787 173.333,197.998 173.906 C 198.492 175.248,200.244 175.355,217.469 175.101 C 235.014 174.841,234.502 174.738,231.782 177.975 C 229.768 180.372,228.161 182.550,228.141 182.910 C 228.132 183.071,240.078 183.203,254.688 183.203 L 281.250 183.203 281.242 181.934 C 281.230 179.859,280.127 171.144,279.439 167.676 L 278.799 164.453 239.976 164.453 L 201.153 164.453 200.755 165.500 M118.750 199.023 L 118.750 209.375 151.922 209.375 L 185.093 209.375 185.762 207.324 C 186.130 206.196,186.564 205.098,186.727 204.883 C 187.034 204.476,188.672 198.717,188.672 198.043 C 188.672 197.794,182.486 197.656,171.289 197.656 L 153.906 197.656 153.906 196.545 C 153.906 195.930,154.255 195.118,154.688 194.727 C 155.117 194.338,155.469 193.802,155.469 193.536 C 155.469 193.270,155.701 192.963,155.986 192.854 C 156.270 192.745,157.254 191.759,158.171 190.664 L 159.838 188.672 139.294 188.672 L 118.750 188.672 118.750 199.023 M221.425 190.138 C 220.679 190.945,219.901 191.904,219.696 192.270 C 219.491 192.636,218.447 193.929,217.377 195.144 C 216.306 196.359,215.518 197.418,215.625 197.497 C 215.732 197.576,215.425 197.918,214.941 198.257 C 214.458 198.595,214.063 199.088,214.063 199.352 C 214.063 199.616,213.555 200.131,212.934 200.498 C 211.326 201.448,209.284 203.888,209.540 204.555 C 209.659 204.865,209.614 205.031,209.440 204.923 C 209.266 204.815,208.206 205.769,207.084 207.043 L 205.046 209.359 241.374 209.371 C 275.661 209.382,277.723 209.344,278.053 208.695 C 278.498 207.822,280.025 200.905,280.059 199.609 C 280.106 197.824,280.271 196.682,280.510 196.484 C 280.640 196.377,280.853 194.575,280.983 192.480 L 281.220 188.672 252.001 188.672 L 222.782 188.672 221.425 190.138 M118.655 266.895 C 118.600 296.167,118.621 320.346,118.701 320.625 C 118.951 321.487,120.047 320.959,120.979 319.529 C 121.468 318.778,122.219 317.725,122.647 317.188 C 123.076 316.650,123.429 316.069,123.432 315.895 C 123.435 315.721,123.584 315.669,123.763 315.780 C 123.942 315.891,124.089 315.754,124.089 315.476 C 124.089 315.198,124.924 313.800,125.946 312.368 C 126.967 310.937,127.666 309.766,127.499 309.766 C 127.331 309.766,127.477 309.546,127.823 309.277 C 128.169 309.009,131.180 304.746,134.514 299.805 C 137.847 294.863,140.951 290.337,141.411 289.746 C 141.871 289.155,142.058 288.672,141.827 288.672 C 141.595 288.672,141.406 288.502,141.406 288.294 C 141.406 288.085,141.644 288.006,141.934 288.118 C 142.474 288.325,143.880 286.558,143.880 285.674 C 143.880 285.408,143.996 285.262,144.138 285.350 C 144.975 285.867,148.057 279.954,147.373 279.143 C 146.688 278.331,146.690 278.329,147.492 279.004 C 148.388 279.758,151.186 276.753,150.549 275.722 C 150.377 275.443,150.441 275.376,150.716 275.546 C 150.994 275.717,151.740 274.889,152.687 273.360 C 153.525 272.006,154.710 270.371,155.321 269.727 C 155.931 269.082,156.433 268.451,156.438 268.324 C 156.460 267.671,163.119 257.794,163.644 257.637 C 163.982 257.536,171.844 257.490,181.115 257.535 C 190.387 257.580,197.915 257.524,197.845 257.410 C 197.774 257.297,198.802 257.311,200.128 257.441 C 201.454 257.572,203.066 257.641,203.711 257.595 C 204.355 257.548,205.728 257.490,206.761 257.466 C 207.795 257.442,208.548 257.272,208.435 257.090 C 208.322 256.907,209.109 256.842,210.185 256.946 C 211.260 257.049,213.495 256.909,215.152 256.635 C 216.809 256.361,218.604 256.091,219.141 256.035 C 219.678 255.979,221.084 255.656,222.266 255.316 C 223.447 254.977,225.513 254.411,226.855 254.060 C 228.198 253.708,229.297 253.256,229.297 253.054 C 229.297 252.853,229.478 252.800,229.700 252.938 C 230.541 253.457,236.751 251.095,236.223 250.457 C 235.807 249.953,235.847 249.939,236.523 250.358 C 237.187 250.768,237.795 250.630,240.564 249.443 C 242.356 248.674,244.009 248.161,244.237 248.302 C 244.465 248.443,244.549 248.392,244.424 248.189 C 244.299 247.987,245.019 247.397,246.024 246.878 C 248.254 245.728,251.320 243.715,251.497 243.284 C 251.569 243.111,251.801 242.969,252.013 242.969 C 252.490 242.969,256.005 240.596,256.188 240.150 C 256.261 239.971,257.140 239.205,258.141 238.447 C 260.849 236.396,263.693 233.553,263.443 233.149 C 263.322 232.953,263.374 232.841,263.558 232.900 C 264.275 233.130,270.253 225.780,270.020 224.955 C 269.966 224.765,270.073 224.609,270.257 224.609 C 270.945 224.609,273.494 219.935,273.241 219.138 C 273.102 218.700,273.172 218.359,273.402 218.359 C 273.902 218.359,274.756 217.089,275.571 215.137 L 276.182 213.672 238.728 213.672 L 201.273 213.672 197.414 218.236 C 191.668 225.031,190.167 226.725,189.587 227.070 C 189.299 227.242,189.063 227.546,189.063 227.747 C 189.062 227.947,188.429 228.763,187.655 229.560 C 186.882 230.357,185.983 231.413,185.660 231.907 C 185.336 232.401,184.910 232.706,184.713 232.585 C 184.517 232.463,184.404 232.533,184.463 232.740 C 184.522 232.947,182.944 234.974,180.957 237.244 C 178.970 239.514,177.344 241.555,177.344 241.779 C 177.344 242.004,177.180 242.188,176.979 242.188 C 176.779 242.188,176.504 242.539,176.367 242.969 C 176.205 243.481,175.776 243.750,175.125 243.750 C 173.963 243.750,173.993 243.160,175.353 239.310 C 175.798 238.050,176.075 236.878,175.969 236.707 C 175.863 236.535,175.920 236.336,176.094 236.264 C 176.604 236.054,178.969 228.151,178.668 227.665 C 178.501 227.394,178.570 227.331,178.846 227.502 C 179.094 227.655,179.310 227.638,179.327 227.464 C 179.343 227.291,179.421 226.801,179.500 226.377 C 179.579 225.952,179.434 225.472,179.178 225.309 C 178.856 225.104,178.910 225.010,179.353 225.006 C 180.186 224.998,180.952 222.910,181.325 219.629 C 181.355 219.360,181.504 219.141,181.654 219.141 C 181.805 219.141,182.228 218.130,182.594 216.895 C 182.960 215.659,183.350 214.429,183.459 214.160 C 183.618 213.772,177.014 213.672,151.207 213.672 L 118.756 213.672 118.655 266.895 " stroke="none" fill="#048cdc" fill-rule="evenodd"></path><path id="path4" d="M118.543 137.109 C 118.543 149.893,118.592 155.122,118.652 148.730 C 118.712 142.339,118.712 131.880,118.652 125.488 C 118.592 119.097,118.543 124.326,118.543 137.109 M267.786 142.208 C 267.967 142.500,268.336 143.011,268.607 143.342 C 270.337 145.463,270.613 145.672,269.555 144.063 C 268.488 142.439,266.899 140.773,267.786 142.208 M207.365 143.945 C 207.242 144.590,207.018 145.469,206.866 145.898 C 206.715 146.328,206.877 146.186,207.226 145.583 C 207.575 144.980,207.800 144.101,207.724 143.630 C 207.611 142.917,207.551 142.970,207.365 143.945 M193.322 150.293 C 192.613 151.099,191.848 151.699,191.622 151.628 C 191.396 151.556,191.343 151.630,191.505 151.791 C 191.666 151.953,191.507 152.407,191.151 152.800 C 190.795 153.194,190.602 153.516,190.721 153.516 C 190.841 153.516,191.852 152.461,192.969 151.172 C 194.085 149.883,194.912 148.828,194.806 148.828 C 194.699 148.828,194.032 149.487,193.322 150.293 M118.528 173.828 C 118.528 179.092,118.584 181.245,118.651 178.613 C 118.719 175.981,118.719 171.675,118.651 169.043 C 118.584 166.411,118.528 168.564,118.528 173.828 M279.641 168.054 C 279.821 169.139,279.876 169.194,279.999 168.412 C 280.079 167.904,279.983 167.327,279.786 167.130 C 279.570 166.913,279.512 167.278,279.641 168.054 M173.983 171.940 C 173.873 172.119,173.911 172.266,174.068 172.266 C 174.226 172.266,173.930 172.749,173.412 173.340 C 172.801 174.035,172.984 173.939,173.929 173.068 C 174.733 172.328,175.391 171.698,175.391 171.668 C 175.391 171.443,174.141 171.684,173.983 171.940 M280.861 174.805 C 280.739 176.430,280.877 177.878,281.187 178.204 C 281.331 178.356,281.395 177.653,281.330 176.642 C 281.171 174.168,280.969 173.377,280.861 174.805 M170.041 177.116 C 170.083 177.349,169.854 177.480,169.531 177.409 C 169.209 177.337,169.080 177.414,169.245 177.578 C 169.410 177.743,168.972 178.505,168.271 179.271 C 167.571 180.037,167.919 179.792,169.046 178.726 C 171.395 176.502,171.256 176.693,170.530 176.693 C 170.219 176.693,169.999 176.883,170.041 177.116 M230.240 179.395 C 227.868 181.985,227.514 182.482,228.245 182.202 C 228.608 182.062,228.906 181.791,228.906 181.600 C 228.906 181.409,229.542 180.549,230.319 179.689 C 231.096 178.829,231.658 178.125,231.567 178.125 C 231.477 178.125,230.880 178.696,230.240 179.395 M281.163 180.566 C 281.375 183.303,281.547 183.536,281.595 181.152 C 281.620 179.917,281.504 178.906,281.337 178.906 C 281.171 178.906,281.092 179.653,281.163 180.566 M118.530 199.023 C 118.530 204.824,118.585 207.252,118.651 204.418 C 118.718 201.584,118.718 196.838,118.652 193.871 C 118.585 190.904,118.531 193.223,118.530 199.023 M159.155 189.941 L 158.008 191.211 159.277 190.064 C 160.461 188.994,160.726 188.672,160.425 188.672 C 160.357 188.672,159.786 189.243,159.155 189.941 M281.285 189.063 C 281.255 189.170,281.158 191.016,281.071 193.164 L 280.911 197.070 281.281 193.555 C 281.574 190.759,281.577 188.031,281.285 189.063 M219.167 192.150 C 218.224 193.474,218.102 194.063,218.945 193.220 C 219.268 192.898,219.531 192.454,219.531 192.235 C 219.531 192.015,219.839 191.657,220.215 191.438 C 220.591 191.219,220.691 191.034,220.437 191.028 C 220.183 191.021,219.612 191.526,219.167 192.150 M157.043 192.371 C 156.544 192.901,156.016 193.261,155.868 193.169 C 155.720 193.078,155.599 193.265,155.599 193.585 C 155.599 193.965,156.051 193.729,156.901 192.906 C 157.617 192.212,158.203 191.590,158.203 191.525 C 158.203 191.241,157.890 191.469,157.043 192.371 M280.422 197.689 C 280.397 197.993,280.405 198.462,280.440 198.730 C 280.474 198.999,280.344 199.219,280.149 199.219 C 279.955 199.219,279.871 199.614,279.962 200.098 C 280.054 200.581,279.961 201.722,279.755 202.634 C 279.550 203.545,279.518 204.207,279.684 204.104 C 280.065 203.868,280.992 197.659,280.691 197.358 C 280.569 197.235,280.448 197.384,280.422 197.689 M205.639 207.910 L 204.492 209.180 205.857 208.008 C 206.608 207.363,207.297 206.792,207.387 206.738 C 207.478 206.685,207.380 206.641,207.169 206.641 C 206.959 206.641,206.271 207.212,205.639 207.910 M118.549 266.211 C 118.549 295.215,118.596 307.138,118.652 292.706 C 118.709 278.275,118.709 254.544,118.652 239.972 C 118.596 225.399,118.549 237.207,118.549 266.211 M181.238 220.725 C 181.002 221.166,180.867 221.701,180.937 221.914 C 181.008 222.126,181.268 221.764,181.515 221.111 C 182.028 219.751,181.874 219.536,181.238 220.725 M270.983 224.216 C 270.683 224.645,270.293 224.864,270.117 224.705 C 269.941 224.545,269.923 224.634,270.078 224.902 C 270.457 225.562,270.517 225.537,271.253 224.414 C 272.010 223.259,271.775 223.086,270.983 224.216 M240.430 249.852 C 238.926 250.594,238.119 251.085,238.637 250.944 C 240.018 250.569,244.437 248.432,243.750 248.471 C 243.428 248.490,241.934 249.111,240.430 249.852 M172.363 257.712 C 174.028 257.785,176.753 257.785,178.418 257.712 C 180.083 257.639,178.721 257.579,175.391 257.579 C 172.061 257.579,170.698 257.639,172.363 257.712 M158.984 264.648 C 158.319 265.615,157.863 266.406,157.970 266.406 C 158.078 266.406,158.710 265.615,159.375 264.648 C 160.040 263.682,160.497 262.891,160.389 262.891 C 160.282 262.891,159.650 263.682,158.984 264.648 M136.295 297.792 C 135.361 299.061,134.178 301.030,134.618 300.586 C 135.373 299.822,137.186 297.212,137.051 297.083 C 136.976 297.011,136.636 297.330,136.295 297.792 M118.127 321.150 C 118.148 322.362,118.296 323.275,118.457 323.177 C 118.618 323.080,118.750 322.674,118.750 322.275 C 118.750 321.876,118.970 321.461,119.238 321.352 C 119.540 321.231,119.475 321.144,119.069 321.125 C 118.662 321.105,118.350 320.685,118.251 320.020 C 118.163 319.429,118.107 319.937,118.127 321.150 " stroke="none" fill="#048cd4" fill-rule="evenodd"></path></g></svg>